<svg xmlns="http://www.w3.org/2000/svg" xmlns:xlink="http://www.w3.org/1999/xlink" viewBox="0 0 58 58"><defs><filter id="a" width="200%" height="200%" x="-50%" y="-50%" filterUnits="objectBoundingBox"><feOffset in="SourceAlpha" result="shadowOffsetOuter1"/><feGaussianBlur in="shadowOffsetOuter1" result="shadowBlurOuter1" stdDeviation="1.5"/><feColorMatrix in="shadowBlurOuter1" result="shadowMatrixOuter1" values="0 0 0 0 0 0 0 0 0 0 0 0 0 0 0 0 0 0 0.08 0"/><feMerge><feMergeNode in="shadowMatrixOuter1"/><feMergeNode in="SourceGraphic"/></feMerge></filter><path id="b" d="M7.614 4.051c-1.066.086-1.452-.398-1.752-1.584C5.562 1.28.33 5.88.33 5.88l3.71 19.476c0 .148-1.56 7.515-1.56 7.515-.489 2.19.292 4.27 3.56 4.32 0 0 36.917.017 36.92.047 1.979-.012 2.981-.995 3.013-3.039.03-2.043-1.045-2.978-2.987-2.993L8.83 31.192s.86-3.865 1.077-3.865c0 0-5.788.122 32.065-1.956.606-.033 2.018-.764 2.298-1.848 1.113-4.317 4.008-13.26 4.458-15.64.932-4.925 2.061-8.558-4.28-7.405 0 0-35.768 3.487-36.833 3.573z"/></defs><g fill="none" fill-rule="evenodd" filter="url(#a)" transform="translate(3 2)"><g transform="translate(5.038 7.808)"><mask id="c" fill="#fff"><use xlink:href="#b"/></mask><use fill="#FFF" xlink:href="#b"/><path fill="#2073C1" d="M53.962 7.774l-5.701 19.305-40.78 1.574z" mask="url(#c)" opacity=".1"/></g><path stroke="#FFF" stroke-linecap="round" stroke-width="6" d="M9.374 18.722S7.868 11.283 7.323 8.71C6.778 6.136 5.86 5.33 3.978 4.52 2.096 3.713.367 2.286.367 2.286"/><circle cx="46" cy="51" r="4" fill="#FFF"/><circle cx="12" cy="51" r="4" fill="#FFF"/></g></svg>